<?xml version="1.0" encoding="iso-8859-1"?>
<!-- Uploaded to: SVG Repo, www.svgrepo.com, Generator: SVG Repo Mixer Tools -->
<svg version="1.1" id="Layer_1" xmlns="http://www.w3.org/2000/svg" xmlns:xlink="http://www.w3.org/1999/xlink" 
	 viewBox="0 0 512 512" xml:space="preserve">
<rect x="378.39" y="133.61" style="fill:#7FC7FF;" width="123.41" height="122.39"/>
<g>
	<rect x="133.61" y="10.199" style="fill:#1164B4;" width="122.39" height="123.41"/>
	<rect x="256" y="133.61" style="fill:#1164B4;" width="122.39" height="122.39"/>
	<rect x="378.39" y="10.199" style="fill:#1164B4;" width="123.41" height="123.41"/>
</g>
<g>
	<rect x="256" y="10.199" style="fill:#7FC7FF;" width="122.39" height="123.41"/>
	<rect x="256" y="256" style="fill:#7FC7FF;" width="122.39" height="122.39"/>
	<rect x="133.61" y="133.61" style="fill:#7FC7FF;" width="122.39" height="122.39"/>
</g>
<rect x="133.61" y="256" style="fill:#1164B4;" width="122.39" height="122.39"/>
<rect x="133.61" y="378.39" style="fill:#7FC7FF;" width="122.39" height="123.41"/>
<rect x="256" y="378.39" style="fill:#1164B4;" width="122.39" height="123.41"/>
<rect x="378.39" y="378.39" style="fill:#7FC7FF;" width="123.41" height="123.41"/>
<g>
	<rect x="378.39" y="256" style="fill:#1164B4;" width="123.41" height="122.39"/>
	<rect x="10.199" y="378.39" style="fill:#1164B4;" width="123.41" height="123.41"/>
</g>
<rect x="10.199" y="10.199" style="fill:#7FC7FF;" width="123.41" height="123.41"/>
<rect x="10.199" y="133.61" style="fill:#1164B4;" width="123.41" height="122.39"/>
<rect x="10.199" y="256" style="fill:#7FC7FF;" width="123.41" height="122.39"/>
<circle style="fill:#BDCED4;" cx="256" cy="256" r="82.614"/>
<path d="M512,10.199C512,4.567,507.433,0,501.801,0H10.199C4.566,0,0,4.567,0,10.199v491.602C0,507.433,4.566,512,10.199,512
	h491.602c5.632,0,10.199-4.567,10.199-10.199V10.199z M491.602,245.801H388.59V143.809h103.012V245.801z M368.191,245.801H348.25
	c-4.727-43.046-39.005-77.323-82.051-82.051v-19.941h101.992V245.801z M256,328.414c-39.929,0-72.414-32.486-72.414-72.414
	s32.485-72.414,72.414-72.414s72.414,32.485,72.414,72.414S295.929,328.414,256,328.414z M245.801,163.75
	c-43.046,4.727-77.323,39.005-82.051,82.051h-19.941V143.809h101.992V163.75z M123.41,245.801H20.398V143.809H123.41V245.801z
	 M20.398,266.199H123.41v101.992H20.398V266.199z M143.809,266.199h19.941c4.727,43.046,39.005,77.323,82.051,82.051v19.941H143.809
	V266.199z M266.199,348.25c43.046-4.727,77.323-39.005,82.051-82.051h19.941v101.992H266.199V348.25z M388.59,266.199h103.012
	v101.992H388.59V266.199z M491.602,123.41H388.59V20.398h103.012V123.41z M368.191,123.41H266.199V20.398h101.992V123.41z
	 M245.801,123.41H143.809V20.398h101.992V123.41z M20.398,20.398H123.41V123.41H20.398V20.398z M20.398,388.59H123.41v103.012
	H20.398V388.59z M143.809,388.59h101.992v103.012H143.809V388.59z M266.199,388.59h101.992v103.012H266.199V388.59z
	 M491.602,491.602H388.59V388.59h103.012V491.602z"/>
<path d="M293.737,245.801c-5.632,0-10.199,4.567-10.199,10.199c0,1.757-0.165,3.515-0.493,5.225
	c-1.058,5.533,2.57,10.875,8.102,11.933c0.648,0.123,1.291,0.184,1.927,0.184c4.797,0,9.073-3.4,10.007-8.286
	c0.568-2.969,0.856-6.017,0.856-9.056C303.936,250.368,299.369,245.801,293.737,245.801z"/>
<path d="M270.878,279.179c-4.431,2.852-9.575,4.359-14.878,4.359c-15.185,0-27.538-12.353-27.538-27.538
	s12.353-27.538,27.538-27.538c5.632,0,10.199-4.567,10.199-10.199s-4.567-10.199-10.199-10.199
	c-26.432,0-47.936,21.504-47.936,47.936c0,26.432,21.504,47.936,47.936,47.936c9.228,0,18.191-2.63,25.919-7.607
	c4.738-3.05,6.103-9.361,3.055-14.096C281.924,277.496,275.612,276.129,270.878,279.179z"/>
</svg>